<?xml version="1.0" encoding="utf-8"?>
<!-- Generator: Adobe Illustrator 22.0.1, SVG Export Plug-In . SVG Version: 6.00 Build 0)  -->
<svg version="1.1" id="Слой_1" xmlns="http://www.w3.org/2000/svg" xmlns:xlink="http://www.w3.org/1999/xlink" x="0px" y="0px"
	 viewBox="0 0 150 150" style="enable-background:new 0 0 150 150;" xml:space="preserve">
<style type="text/css">
	.st0{fill:#E76E54;}
</style>
<path class="st0" d="M75,32.3c-23.5,0-42.7,19.1-42.7,42.7s19.1,42.7,42.7,42.7s42.7-19.1,42.7-42.7S98.5,32.3,75,32.3z M43,75
	c0-17.6,14.4-32,32-32c6.9,0,13.3,2.2,18.5,5.9L48.9,93.5C45.2,88.3,43,81.9,43,75z M75,107c-6.9,0-13.3-2.2-18.5-5.9l44.6-44.6
	c3.7,5.2,5.9,11.6,5.9,18.5C107,92.6,92.6,107,75,107z"/>
</svg>
