<?xml version="1.0" encoding="utf-8"?>
<!-- Generator: Adobe Illustrator 22.0.1, SVG Export Plug-In . SVG Version: 6.00 Build 0)  -->
<svg version="1.1" id="Слой_1" xmlns="http://www.w3.org/2000/svg" xmlns:xlink="http://www.w3.org/1999/xlink" x="0px" y="0px"
	 viewBox="0 0 6 1" style="enable-background:new 0 0 6 1;" xml:space="preserve">
<style type="text/css">
	.st0{fill:#201600;}
</style>
<g>
	<path d="M4.8422604,0.1887844h0.0446v0.0183647C4.8970265,0.1986227,4.906209,0.1927198,4.9144073,0.1894404
		C4.922606,0.186161,4.9311323,0.1845213,4.9396586,0.1845213c0.0177093,0,0.0327945,0.0062308,0.0449281,0.0183647
		C4.9950809,0.21338,5,0.2287932,5,0.2494535v0.1177306H4.9557281V0.2891343c0-0.0213161-0.0009837-0.0354176-0.0029516-0.0423043
		C4.950809,0.2399432,4.9475293,0.2343682,4.9429383,0.2307609c-0.0045915-0.0036073-0.0104942-0.005575-0.0177088-0.005575
		c-0.0091825,0-0.0167251,0.0029514-0.023284,0.0091823C4.8953867,0.2402712,4.8911238,0.2487976,4.8885002,0.2596197
		c-0.0013118,0.005575-0.0019674,0.0177088-0.0019674,0.0360735v0.071491h-0.0446L4.8422604,0.1887844L4.8422604,0.1887844z"/>
	<g>
		<g>
			<path d="M2.1206822,0.2251859V0.439659h0.1656098v0.1095321H2.1206822v0.2252951h0.20857v0.1098601H2V0.1153258h0.3292522
				v0.1098601H2.1206822z"/>
		</g>
	</g>
	<g>
		<g>
			<path d="M2.7929602,0.1153258c0.1200264,0,0.1800394,0.0632925,0.1800394,0.1902055v0.0996939
				c0,0.126585-0.0600131,0.1898776-0.1797113,0.1898776H2.7358985v0.2889156h-0.120682V0.1153258H2.7929602z M2.7932882,0.2251859
				H2.7358985v0.2607127h0.0573897c0.0196764,0,0.0344336-0.005575,0.0442719-0.016725
				c0.0098381-0.01115,0.0147572-0.0298426,0.0147572-0.0564058V0.2976607c0-0.0265632-0.0049191-0.0452558-0.0147572-0.0560779
				C2.8277218,0.2307608,2.8129647,0.2251859,2.7932882,0.2251859z"/>
		</g>
	</g>
	<path d="M3.2966769,0.1258199h0.1315041v0.0449279H3.3422606v0.0436161h0.0859203v0.043944H3.3422606v0.0632925h0.0859203
		v0.0449278H3.2966769V0.1258199z"/>
	<path d="M3.6170747,0.1199169h0.0445998v0.2472672H3.6170747V0.3484915C3.6082203,0.35669,3.599694,0.3629209,3.5908396,0.3665282
		C3.581985,0.3701356,3.572475,0.3721032,3.5623085,0.3721032c-0.0229557,0-0.0429602-0.0088544-0.059685-0.0268911
		C3.4858985,0.3275034,3.4773719,0.3052034,3.4773719,0.2786402c0-0.027547,0.0081985-0.0501749,0.0242677-0.0675558
		c0.016397-0.0177088,0.0360734-0.0262353,0.0593572-0.0262353c0.0108221,0,0.0206602,0.0019677,0.0301707,0.0059029
		c0.0095103,0.0039353,0.0180366,0.0101662,0.0259073,0.0180367V0.1199169z M3.5701792,0.2255138
		c-0.0137734,0-0.0252514,0.0049191-0.0344336,0.0147573c-0.0091825,0.0098382-0.0137737,0.0223-0.0137737,0.0377132
		s0.0045912,0.0282029,0.0141015,0.0380411c0.0091822,0.0098382,0.0206602,0.0147573,0.0344338,0.0147573
		c0.0141013,0,0.0255792-0.0049191,0.0350895-0.0147573c0.0091825-0.0098382,0.0137737-0.0226279,0.0137737-0.038369
		c0-0.0154132-0.0045912-0.0282029-0.0137737-0.0377132C3.5957587,0.230105,3.5842807,0.2255138,3.5701792,0.2255138z"/>
	<path d="M3.726279,0.1887844h0.0452557v0.0859204c0,0.016725,0.0013118,0.0282029,0.0036073,0.0347617
		c0.0022955,0.0065588,0.0059028,0.0114779,0.0111501,0.0150853C3.791539,0.3281592,3.79777,0.3297989,3.8049846,0.3297989
		c0.0075426,0,0.0137737-0.0016397,0.0190206-0.0052471c0.0052471-0.0036074,0.0091822-0.0088544,0.0114779-0.0157412
		c0.0019677-0.0052471,0.0029516-0.0160691,0.0029516-0.0327941V0.1887844h0.0445998v0.0754263
		c0,0.0311543-0.0026236,0.0524705-0.0072148,0.0639484C3.8699169,0.3422606,3.8610623,0.3527547,3.8492565,0.3602974
		S3.8226936,0.3714473,3.8046567,0.3714473c-0.0196764,0-0.0354176-0.0042632-0.0475514-0.0131176
		S3.7364452,0.3373415,3.7315261,0.3219283C3.7279189,0.3111062,3.726279,0.2914298,3.726279,0.262899V0.1887844L3.726279,0.1887844
		z"/>
	<path d="M4.1221032,0.2248579L4.0847178,0.2451902C4.0778313,0.2379755,4.0709443,0.2327285,4.0640578,0.2301049
		c-0.006887-0.0029514-0.0147576-0.0042632-0.0239396-0.0042632c-0.0167251,0-0.0301709,0.0049191-0.0406649,0.0150853
		C3.9889593,0.2507652,3.98404,0.2635548,3.98404,0.279296c0,0.0150853,0.0049193,0.027547,0.0150852,0.0370573
		c0.0098383,0.0095102,0.0229557,0.0144294,0.0393531,0.0144294c0.0200043,0,0.0357451-0.0068868,0.046895-0.0203323
		L4.120791,0.3347179C4.1017704,0.3596414,4.0745516,0.3721031,4.0397897,0.3721031
		c-0.0314822,0-0.0560777-0.0091824-0.0737865-0.0278749C3.9482944,0.3255356,3.93944,0.3038915,3.93944,0.278968
		c0-0.0173809,0.0042632-0.033122,0.0127897-0.0475514s0.0206604-0.0259073,0.0360734-0.0341058
		c0.0154133-0.0081985,0.032794-0.0124618,0.0518146-0.0124618c0.0177088,0,0.0334501,0.0036074,0.0475516,0.0104941
		C4.1014428,0.2019021,4.1129208,0.2117403,4.1221032,0.2248579z"/>
	<path d="M4.3132925,0.1887844h0.0446v0.1783997h-0.0446V0.3484915C4.3044381,0.35669,4.2959118,0.3629209,4.2870574,0.3665282
		s-0.0183649,0.005575-0.0285311,0.005575c-0.0229559,0-0.0429602-0.0088544-0.0596852-0.0268911
		C4.182116,0.3275034,4.1735897,0.3052034,4.1735897,0.2786402c0-0.027547,0.0081983-0.0501749,0.0242677-0.0675558
		c0.016397-0.0177088,0.0360732-0.0262353,0.0593572-0.0262353c0.0108218,0,0.0206604,0.0019677,0.0301704,0.0059029
		c0.0095105,0.0039353,0.0180368,0.0101662,0.0259075,0.0180367V0.1887844z M4.266397,0.2255138
		c-0.0137734,0-0.0252514,0.0049191-0.0344338,0.0147573c-0.009182,0.0098382-0.0137734,0.0223-0.0137734,0.0377132
		s0.0045915,0.0282029,0.0141015,0.0380411c0.009182,0.0098382,0.0206599,0.0147573,0.0344338,0.0147573
		c0.014101,0,0.025579-0.0049191,0.0350895-0.0147573C4.310997,0.3061872,4.315588,0.2933975,4.315588,0.2776563
		c0-0.0154132-0.004591-0.0282029-0.0137734-0.0377132C4.292304,0.230105,4.2804985,0.2255138,4.266397,0.2255138z"/>
	<path d="M4.4280715,0.1228684h0.0446v0.0655881h0.0265632v0.038369H4.4726715v0.1397026h-0.0446V0.2268255H4.4051156v-0.038369
		h0.0229559V0.1228684z"/>
	<path d="M4.5602317,0.1153258c0.0078707,0,0.0144296,0.0029515,0.0203323,0.0085265
		c0.0055752,0.005575,0.0085263,0.0124617,0.0085263,0.0206603c0,0.0078706-0.0026236,0.0147573-0.0081983,0.0203323
		C4.5753169,0.1704198,4.568758,0.1733712,4.5608873,0.1733712c-0.0078702,0-0.0147572-0.0029515-0.0203323-0.0085264
		c-0.0055747-0.005575-0.0085263-0.0127897-0.0085263-0.0209882c0-0.0078706,0.0026236-0.0144294,0.0081987-0.0200044
		C4.5458026,0.1179493,4.552361,0.1153258,4.5602317,0.1153258z M4.5379319,0.1887844h0.0445995v0.1783997H4.5379319V0.1887844z"/>
	<path d="M4.7166591,0.1841933c0.0167251,0,0.0327945,0.0042632,0.0475516,0.0124618
		c0.0147572,0.0085265,0.0262351,0.0196764,0.0347614,0.0341058c0.0081987,0.0144294,0.0124617,0.0298426,0.0124617,0.0465675
		S4.8071709,0.3097945,4.7989721,0.3245518C4.7907739,0.3393091,4.7792959,0.350787,4.7648664,0.3589855
		C4.7504368,0.3671841,4.7346959,0.3714473,4.7173152,0.3714473c-0.0255795,0-0.0475516-0.0091823-0.0655885-0.0272191
		c-0.0180364-0.0180368-0.0272188-0.0403367-0.0272188-0.066244c0-0.0278749,0.0101662-0.0511588,0.0304985-0.0695234
		C4.6727152,0.1920638,4.6933756,0.1841933,4.7166591,0.1841933z M4.7173152,0.2261697
		c-0.0137734,0-0.0255795,0.0049191-0.0347614,0.0144294c-0.0091825,0.0095103-0.0137739,0.021972-0.0137739,0.0370573
		c0,0.0154132,0.0045915,0.0282029,0.0137739,0.0377131c0.009182,0.0095103,0.0206599,0.0144294,0.0347614,0.0144294
		s0.0255795-0.0049191,0.0350895-0.0144294c0.0091825-0.0098382,0.0141015-0.0222999,0.0141015-0.0373852
		c0-0.0150852-0.004591-0.0278749-0.0137734-0.0373852C4.7432222,0.2310888,4.7314167,0.2261697,4.7173152,0.2261697z"/>
	<g>
		<path d="M3.3012681,0.6383908h0.0485351c0.0262351,0,0.0452557,0.0022957,0.0570617,0.0072148
			C3.4183426,0.6505247,3.427525,0.6583952,3.4344118,0.6692173c0.0065589,0.010822,0.0101662,0.0239396,0.0101662,0.0390249
			c0,0.016725-0.0042632,0.0308264-0.0131176,0.0419764C3.422606,0.7613686,3.4108002,0.7692391,3.3957148,0.7735024
			C3.3868604,0.7761259,3.3707912,0.7774377,3.3475075,0.7774377v0.1019895H3.3015959L3.3012681,0.6383908L3.3012681,0.6383908z
			 M3.3471797,0.7328378H3.361609c0.0114779,0,0.0193486-0.0009838,0.0239396-0.0026235
			c0.0045912-0.0016397,0.0078707-0.0042632,0.0104942-0.0081985c0.0026233-0.0039353,0.0039353-0.0081985,0.0039353-0.0137736
			c0-0.0091823-0.0036075-0.0160691-0.0108221-0.0203323C3.383909,0.6846305,3.3740709,0.6829908,3.3599694,0.6829908H3.3471797
			V0.7328378L3.3471797,0.7328378z"/>
		<path d="M3.4990163,0.632488h0.0445998v0.2472672H3.4990163V0.632488z"/>
		<path d="M3.7354612,0.7013555H3.780061v0.1783997H3.7354612V0.8610625
			C3.7266068,0.869261,3.7180805,0.8754918,3.7092259,0.8790992c-0.0088544,0.0036074-0.0183644,0.005575-0.0285308,0.005575
			c-0.0229559,0-0.0429602-0.0088544-0.0596852-0.0268911C3.604285,0.8400743,3.5957584,0.8177743,3.5957584,0.7912112
			c0-0.027547,0.0081985-0.0501749,0.0242677-0.0675558c0.016397-0.0177088,0.0360734-0.0262352,0.0593572-0.0262352
			c0.0108221,0,0.0206602,0.0019677,0.0301704,0.0059029c0.0095105,0.0039352,0.0180368,0.0101662,0.0259075,0.0180367V0.7013555z
			 M3.6882379,0.7380849c-0.0137734,0-0.0252514,0.0049191-0.0344338,0.0147573
			C3.6446218,0.7626804,3.6400306,0.7751421,3.6400306,0.7905554s0.0045912,0.0282029,0.0141015,0.0380411
			c0.0091822,0.0098382,0.0206602,0.0147573,0.0344336,0.0147573c0.0141015,0,0.0255795-0.0049191,0.0350897-0.0147573
			c0.0091822-0.0098382,0.0137734-0.0226279,0.0137734-0.0383691c0-0.0154133-0.0045912-0.028203-0.0137734-0.0377132
			C3.7141452,0.742676,3.7026672,0.7380849,3.6882379,0.7380849z"/>
		<path d="M3.8502405,0.6354394h0.0445998v0.0655881h0.0265632v0.0383691H3.8948402v0.1397027H3.8502405V0.7393966H3.8272846
			V0.7010275h0.0229559V0.6354394z"/>
		<path d="M3.9437034,0.7013555h0.0157411c0-0.0232838,0.0006559-0.0370572,0.0013118-0.0413205
			c0.001312-0.0098382,0.0052471-0.0177088,0.0124619-0.0232838c0.0068865-0.0055751,0.0170529-0.0085265,0.0298426-0.0085265
			c0.009182,0,0.0196762,0.0019677,0.0314822,0.0062309v0.0341058C4.0279841,0.6665937,4.022737,0.6659378,4.0188017,0.6659378
			c-0.0052471,0-0.0091825,0.0009838-0.0114779,0.0032794C4.0056839,0.670857,4.0047002,0.6741363,4.0047002,0.6793835v0.0222999
			h0.028203v0.0377132h-0.028203V0.879755H3.9601004V0.7393965H3.9443593V0.7013554L3.9437034,0.7013555L3.9437034,0.7013555z"/>
		<path d="M4.1621118,0.6967643c0.0167251,0,0.0327945,0.0042632,0.0475516,0.0124617
			c0.0147572,0.0085265,0.0262351,0.0196764,0.0347614,0.0341058c0.0081987,0.0144293,0.0124617,0.0298426,0.0124617,0.0465676
			c0,0.016725-0.0042629,0.0324661-0.0124617,0.0472234C4.2362266,0.8518802,4.2247486,0.8633581,4.210319,0.8715566
			C4.1958895,0.8797551,4.1801486,0.8840183,4.1627679,0.8840183c-0.0255795,0-0.0475516-0.0091823-0.0655885-0.027219
			C4.079143,0.8387625,4.0699606,0.8164626,4.0699606,0.7905552c0-0.0278749,0.0101662-0.0511587,0.0304985-0.0695234
			C4.1181679,0.7046349,4.1388283,0.6967643,4.1621118,0.6967643z M4.1627679,0.7387407
			c-0.0137739,0-0.0255795,0.0049191-0.0347619,0.0144294C4.118824,0.7626803,4.1142325,0.7751421,4.1142325,0.7902273
			c0,0.0154132,0.0045915,0.0282029,0.0137734,0.0377132c0.0091825,0.0095102,0.0206604,0.0144293,0.0347619,0.0144293
			c0.014101,0,0.025579-0.0049191,0.0350895-0.0144293c0.0091825-0.0098382,0.0141015-0.0222999,0.0141015-0.0373852
			c0-0.0154132-0.0045915-0.0278749-0.0137734-0.0373852C4.1886749,0.7436598,4.177197,0.7387407,4.1627679,0.7387407z"/>
		<path d="M4.3021426,0.7013555h0.0383687v0.0222999C4.3447747,0.714801,4.3500218,0.7082422,4.3569083,0.703651
			c0.006887-0.0045912,0.0144296-0.0068868,0.0226283-0.0068868c0.0059028,0,0.0118055,0.0016397,0.0180364,0.0045912
			L4.3837996,0.7397245c-0.0052466-0.0026235-0.00951-0.0039353-0.0127897-0.0039353
			c-0.0068865,0-0.0127897,0.0042632-0.0173807,0.0127897C4.3490376,0.7571053,4.3464146,0.7738302,4.3464146,0.7987537
			l0.0003276,0.0085264v0.072147H4.3021426V0.7013555z"/>
		<path d="M4.4392219,0.7013555h0.0445995v0.0203324C4.491364,0.7131613,4.4998908,0.7069305,4.5094008,0.7029952
			C4.5189114,0.698732,4.5290771,0.6967643,4.5398993,0.6967643c0.0111499,0,0.0213161,0.0026235,0.0301704,0.0081985
			c0.0088544,0.0055751,0.0160694,0.0134456,0.0216441,0.0239396C4.5989285,0.7184083,4.6074548,0.7105378,4.617949,0.7049628
			s0.0216441-0.0081985,0.0337777-0.0081985c0.0127897,0,0.0239396,0.0029514,0.0334501,0.0088544
			c0.0095105,0.0059029,0.016397,0.0134456,0.0206604,0.0229558c0.0042629,0.0095102,0.0062308,0.0249235,0.0062308,0.0462396
			v0.104613H4.66714V0.7892436c0-0.0203323-0.0026236-0.0337778-0.0075426-0.0409926S4.6471357,0.737429,4.6369696,0.737429
			c-0.0075426,0-0.0144296,0.0022957-0.0206604,0.0065588C4.6104064,0.748251,4.6058154,0.754482,4.6028638,0.7620246
			S4.5986009,0.782029,4.5986009,0.7990818v0.0803455H4.5536728V0.7931789c0-0.0160691-0.0013118-0.0275469-0.0036073-0.0347617
			C4.54777,0.7512025,4.5441628,0.7459555,4.5395713,0.7423481c-0.004591-0.0036073-0.0104942-0.0052471-0.0170527-0.0052471
			c-0.0075426,0-0.0141015,0.0022956-0.0203323,0.0065588C4.495955,0.7479231,4.4916921,0.754154,4.4884124,0.7623525
			c-0.0029511,0.0078706-0.004591,0.0206602-0.004591,0.0377132v0.0793617h-0.0446L4.4392219,0.7013555L4.4392219,0.7013555z"/>
	</g>
	<g>
		<rect x="3.0966332" y="0.1258199" class="st0" width="0.0249235" height="0.7536073"/>
	</g>
</g>
</svg>
