<?xml version="1.0" encoding="utf-8"?>
<!-- Generator: Adobe Illustrator 22.0.1, SVG Export Plug-In . SVG Version: 6.00 Build 0)  -->
<svg version="1.1" id="Слой_1" xmlns="http://www.w3.org/2000/svg" xmlns:xlink="http://www.w3.org/1999/xlink" x="0px" y="0px"
	 viewBox="0 0 1000 450" style="enable-background:new 0 0 1000 450;" xml:space="preserve">
<style type="text/css">
	.st0{fill:#201600;}
</style>
<g>
	<path d="M901.3,132.2h13.6v5.6c3.1-2.6,5.9-4.4,8.4-5.4s5.1-1.5,7.7-1.5c5.4,0,10,1.9,13.7,5.6c3.2,3.2,4.7,7.9,4.7,14.2v35.9
		h-13.5v-23.8c0-6.5-0.3-10.8-0.9-12.9c-0.6-2.1-1.6-3.8-3-4.9s-3.2-1.7-5.4-1.7c-2.8,0-5.1,0.9-7.1,2.8c-2,1.8-3.3,4.4-4.1,7.7
		c-0.4,1.7-0.6,5.4-0.6,11v21.8h-13.6L901.3,132.2L901.3,132.2z"/>
	<g>
		<g>
			<path d="M71.4,143.3v65.4h50.5v33.4H71.4v68.7H135v33.5H34.6V109.8H135v33.5H71.4z"/>
		</g>
	</g>
	<g>
		<g>
			<path d="M276.4,109.8c36.6,0,54.9,19.3,54.9,58v30.4c0,38.6-18.3,57.9-54.8,57.9H259v88.1h-36.8V109.8H276.4z M276.5,143.3H259
				v79.5h17.5c6,0,10.5-1.7,13.5-5.1s4.5-9.1,4.5-17.2v-35.1c0-8.1-1.5-13.8-4.5-17.1C287,145,282.5,143.3,276.5,143.3z"/>
		</g>
	</g>
	<path d="M430,113h40.1v13.7h-26.2V140h26.2v13.4h-26.2v19.3h26.2v13.7H430V113z"/>
	<path d="M527.7,111.2h13.6v75.4h-13.6v-5.7c-2.7,2.5-5.3,4.4-8,5.5s-5.6,1.7-8.7,1.7c-7,0-13.1-2.7-18.2-8.2
		c-5.1-5.4-7.7-12.2-7.7-20.3c0-8.4,2.5-15.3,7.4-20.6c5-5.4,11-8,18.1-8c3.3,0,6.3,0.6,9.2,1.8c2.9,1.2,5.5,3.1,7.9,5.5V111.2z
		 M513.4,143.4c-4.2,0-7.7,1.5-10.5,4.5s-4.2,6.8-4.2,11.5s1.4,8.6,4.3,11.6c2.8,3,6.3,4.5,10.5,4.5c4.3,0,7.8-1.5,10.7-4.5
		c2.8-3,4.2-6.9,4.2-11.7c0-4.7-1.4-8.6-4.2-11.5C521.2,144.8,517.7,143.4,513.4,143.4z"/>
	<path d="M561,132.2h13.8v26.2c0,5.1,0.4,8.6,1.1,10.6c0.7,2,1.8,3.5,3.4,4.6c1.6,1.1,3.5,1.6,5.7,1.6c2.3,0,4.2-0.5,5.8-1.6
		s2.8-2.7,3.5-4.8c0.6-1.6,0.9-4.9,0.9-10v-26.6h13.6v23c0,9.5-0.8,16-2.2,19.5c-1.8,4.3-4.5,7.5-8.1,9.8s-8.1,3.4-13.6,3.4
		c-6,0-10.8-1.3-14.5-4s-6.3-6.4-7.8-11.1c-1.1-3.3-1.6-9.3-1.6-18L561,132.2L561,132.2z"/>
	<path d="M681.7,143.2l-11.4,6.2c-2.1-2.2-4.2-3.8-6.3-4.6c-2.1-0.9-4.5-1.3-7.3-1.3c-5.1,0-9.2,1.5-12.4,4.6
		c-3.2,3-4.7,6.9-4.7,11.7c0,4.6,1.5,8.4,4.6,11.3c3,2.9,7,4.4,12,4.4c6.1,0,10.9-2.1,14.3-6.2l10.8,7.4
		c-5.8,7.6-14.1,11.4-24.7,11.4c-9.6,0-17.1-2.8-22.5-8.5s-8.1-12.3-8.1-19.9c0-5.3,1.3-10.1,3.9-14.5s6.3-7.9,11-10.4
		s10-3.8,15.8-3.8c5.4,0,10.2,1.1,14.5,3.2C675.4,136.2,678.9,139.2,681.7,143.2z"/>
	<path d="M740,132.2h13.6v54.4H740v-5.7c-2.7,2.5-5.3,4.4-8,5.5s-5.6,1.7-8.7,1.7c-7,0-13.1-2.7-18.2-8.2
		c-5.1-5.4-7.7-12.2-7.7-20.3c0-8.4,2.5-15.3,7.4-20.6c5-5.4,11-8,18.1-8c3.3,0,6.3,0.6,9.2,1.8c2.9,1.2,5.5,3.1,7.9,5.5V132.2z
		 M725.7,143.4c-4.2,0-7.7,1.5-10.5,4.5s-4.2,6.8-4.2,11.5s1.4,8.6,4.3,11.6c2.8,3,6.3,4.5,10.5,4.5c4.3,0,7.8-1.5,10.7-4.5
		c2.8-3,4.2-6.9,4.2-11.7c0-4.7-1.4-8.6-4.2-11.5C733.6,144.8,730,143.4,725.7,143.4z"/>
	<path d="M775,112.1h13.6v20h8.1v11.7h-8.1v42.6H775v-42.6h-7v-11.7h7V112.1z"/>
	<path d="M815.3,109.8c2.4,0,4.4,0.9,6.2,2.6c1.7,1.7,2.6,3.8,2.6,6.3c0,2.4-0.8,4.5-2.5,6.2s-3.7,2.6-6.1,2.6
		c-2.4,0-4.5-0.9-6.2-2.6s-2.6-3.9-2.6-6.4c0-2.4,0.8-4.4,2.5-6.1C810.9,110.6,812.9,109.8,815.3,109.8z M808.5,132.2h13.6v54.4
		h-13.6V132.2z"/>
	<path d="M863,130.8c5.1,0,10,1.3,14.5,3.8c4.5,2.6,8,6,10.6,10.4c2.5,4.4,3.8,9.1,3.8,14.2s-1.3,9.9-3.8,14.4s-6,8-10.4,10.5
		s-9.2,3.8-14.5,3.8c-7.8,0-14.5-2.8-20-8.3s-8.3-12.3-8.3-20.2c0-8.5,3.1-15.6,9.3-21.2C849.6,133.2,855.9,130.8,863,130.8z
		 M863.2,143.6c-4.2,0-7.8,1.5-10.6,4.4s-4.2,6.7-4.2,11.3c0,4.7,1.4,8.6,4.2,11.5s6.3,4.4,10.6,4.4s7.8-1.5,10.7-4.4
		c2.8-3,4.3-6.8,4.3-11.4s-1.4-8.5-4.2-11.4C871.1,145.1,867.5,143.6,863.2,143.6z"/>
	<g>
		<path d="M431.4,269.3h14.8c8,0,13.8,0.7,17.4,2.2c3.5,1.5,6.3,3.9,8.4,7.2c2,3.3,3.1,7.3,3.1,11.9c0,5.1-1.3,9.4-4,12.8
			c-2.7,3.4-6.3,5.8-10.9,7.1c-2.7,0.8-7.6,1.2-14.7,1.2v31.1h-14L431.4,269.3L431.4,269.3z M445.4,298.1h4.4c3.5,0,5.9-0.3,7.3-0.8
			s2.4-1.3,3.2-2.5c0.8-1.2,1.2-2.5,1.2-4.2c0-2.8-1.1-4.9-3.3-6.2c-1.6-1-4.6-1.5-8.9-1.5h-3.9L445.4,298.1L445.4,298.1z"/>
		<path d="M491.7,267.5h13.6v75.4h-13.6V267.5z"/>
		<path d="M563.8,288.5h13.6v54.4h-13.6v-5.7c-2.7,2.5-5.3,4.4-8,5.5s-5.6,1.7-8.7,1.7c-7,0-13.1-2.7-18.2-8.2
			c-5.1-5.4-7.7-12.2-7.7-20.3c0-8.4,2.5-15.3,7.4-20.6c5-5.4,11-8,18.1-8c3.3,0,6.3,0.6,9.2,1.8s5.5,3.1,7.9,5.5V288.5z
			 M549.4,299.7c-4.2,0-7.7,1.5-10.5,4.5s-4.2,6.8-4.2,11.5s1.4,8.6,4.3,11.6c2.8,3,6.3,4.5,10.5,4.5c4.3,0,7.8-1.5,10.7-4.5
			c2.8-3,4.2-6.9,4.2-11.7c0-4.7-1.4-8.6-4.2-11.5C557.3,301.1,553.8,299.7,549.4,299.7z"/>
		<path d="M598.8,268.4h13.6v20h8.1v11.7h-8.1v42.6h-13.6v-42.6h-7v-11.7h7V268.4z"/>
		<path d="M627.3,288.5h4.8c0-7.1,0.2-11.3,0.4-12.6c0.4-3,1.6-5.4,3.8-7.1c2.1-1.7,5.2-2.6,9.1-2.6c2.8,0,6,0.6,9.6,1.9v10.4
			c-2-0.6-3.6-0.8-4.8-0.8c-1.6,0-2.8,0.3-3.5,1c-0.5,0.5-0.8,1.5-0.8,3.1v6.8h8.6v11.5h-8.6v42.8h-13.6v-42.8h-4.8v-11.6
			L627.3,288.5L627.3,288.5z"/>
		<path d="M693.9,287.1c5.1,0,10,1.3,14.5,3.8c4.5,2.6,8,6,10.6,10.4c2.5,4.4,3.8,9.1,3.8,14.2c0,5.1-1.3,9.9-3.8,14.4
			s-6,8-10.4,10.5s-9.2,3.8-14.5,3.8c-7.8,0-14.5-2.8-20-8.3s-8.3-12.3-8.3-20.2c0-8.5,3.1-15.6,9.3-21.2
			C680.5,289.5,686.8,287.1,693.9,287.1z M694.1,299.9c-4.2,0-7.8,1.5-10.6,4.4s-4.2,6.7-4.2,11.3c0,4.7,1.4,8.6,4.2,11.5
			s6.3,4.4,10.6,4.4s7.8-1.5,10.7-4.4c2.8-3,4.3-6.8,4.3-11.4c0-4.7-1.4-8.5-4.2-11.4C702,301.4,698.5,299.9,694.1,299.9z"/>
		<path d="M736.6,288.5h11.7v6.8c1.3-2.7,2.9-4.7,5-6.1c2.1-1.4,4.4-2.1,6.9-2.1c1.8,0,3.6,0.5,5.5,1.4l-4.2,11.7
			c-1.6-0.8-2.9-1.2-3.9-1.2c-2.1,0-3.9,1.3-5.3,3.9c-1.4,2.6-2.2,7.7-2.2,15.3l0.1,2.6v22h-13.6V288.5z"/>
		<path d="M778.4,288.5H792v6.2c2.3-2.6,4.9-4.5,7.8-5.7c2.9-1.3,6-1.9,9.3-1.9c3.4,0,6.5,0.8,9.2,2.5s4.9,4.1,6.6,7.3
			c2.2-3.2,4.8-5.6,8-7.3s6.6-2.5,10.3-2.5c3.9,0,7.3,0.9,10.2,2.7s5,4.1,6.3,7s1.9,7.6,1.9,14.1v31.9h-13.7v-27.5
			c0-6.2-0.8-10.3-2.3-12.5s-3.8-3.3-6.9-3.3c-2.3,0-4.4,0.7-6.3,2c-1.8,1.3-3.2,3.2-4.1,5.5c-0.9,2.3-1.3,6.1-1.3,11.3v24.5h-13.7
			v-26.3c0-4.9-0.4-8.4-1.1-10.6c-0.7-2.2-1.8-3.8-3.2-4.9c-1.4-1.1-3.2-1.6-5.2-1.6c-2.3,0-4.3,0.7-6.2,2s-3.2,3.2-4.2,5.7
			c-0.9,2.4-1.4,6.3-1.4,11.5v24.2h-13.6L778.4,288.5L778.4,288.5z"/>
	</g>
	<g>
		<rect x="369" y="113" class="st0" width="7.6" height="229.8"/>
	</g>
</g>
</svg>
